<?xml version="1.0" encoding="UTF-8"?>
<svg width="16px" height="16px" viewBox="0 0 16 16" version="1.1" xmlns="http://www.w3.org/2000/svg" xmlns:xlink="http://www.w3.org/1999/xlink">
    <title>相机</title>
    <g id="1080" stroke="none" stroke-width="1" fill="none" fill-rule="evenodd">
        <g id="态势感知-宏观态势" transform="translate(-509.000000, -762.000000)" fill-rule="nonzero">
            <g id="编组-16" transform="translate(495.000000, 712.000000)">
                <g id="相机" transform="translate(14.000000, 50.000000)">
                    <rect id="矩形" fill="#000000" opacity="0" x="0" y="0" width="16" height="16"></rect>
                    <path d="M3.6,3.5 C3.878,3.5 4.34132813,3.322 4.642,3.098 L5.57532813,2.402 C5.87267188,2.18 6.41,2 6.78,2 L9.22,2 C9.588,2 10.1246719,2.178 10.4246719,2.402 L11.358,3.098 C11.656,3.32 12.1953437,3.5 12.4,3.5 L13.8666719,3.5 C14.6746719,3.5 15.3333281,4.12532812 15.3333281,4.9 L15.3333281,12.6 C15.3333281,13.376 14.6746719,14 13.8666719,14 L2.13332812,14 C1.32,14 0.666671875,13.3746719 0.666671875,12.6 L0.666671875,4.9 C0.666671875,4.124 1.32267187,3.5 2.13332812,3.5 L3.6,3.5 Z M8,11.3333281 C9.84094629,11.3333281 11.3333281,9.84094629 11.3333281,8 C11.3333281,6.15905371 9.84094629,4.66667187 8,4.66667187 C6.15905371,4.66667187 4.66667187,6.15905371 4.66667187,8 C4.66667187,9.84094629 6.15905371,11.3333281 8,11.3333281 L8,11.3333281 Z M8,10 C6.8954305,10 6,9.1045695 6,8 C6,6.8954305 6.8954305,6 8,6 C9.1045695,6 10,6.8954305 10,8 C10,9.1045695 9.1045695,10 8,10 Z" id="形状" fill="#B3D9FF"></path>
                </g>
            </g>
        </g>
    </g>
</svg>